<svg xmlns="http://www.w3.org/2000/svg" xmlns:xlink="http://www.w3.org/1999/xlink" contentStyleType="text/css" data-diagram-type="CLASS" height="243px" preserveAspectRatio="none" style="width:186px;height:243px;background:#FFFFFF;" version="1.1" viewBox="0 0 186 243" width="186px" zoomAndPan="magnify"><?plantuml 1.2026.3beta6?><defs/><g><!--class Tehtava--><g class="entity" data-qualified-name="Tehtava" data-source-line="1" id="ent0002"><rect fill="#F1F1F1" height="96.8906" rx="2.5" ry="2.5" style="stroke:#181818;stroke-width:0.5;" width="164.4551" x="7" y="7"/><ellipse cx="56.4922" cy="23" fill="#ADD1B2" rx="11" ry="11" style="stroke:#181818;stroke-width:1;"/><path d="M59.4609,28.6406 Q58.8828,28.9375 58.2422,29.0781 Q57.6016,29.2344 56.8984,29.2344 Q54.3984,29.2344 53.0703,27.5938 Q51.7578,25.9375 51.7578,22.8125 Q51.7578,19.6875 53.0703,18.0313 Q54.3984,16.375 56.8984,16.375 Q57.6016,16.375 58.2422,16.5313 Q58.8984,16.6875 59.4609,16.9844 L59.4609,19.7031 Q58.8359,19.125 58.2422,18.8594 Q57.6484,18.5781 57.0234,18.5781 Q55.6797,18.5781 54.9922,19.6563 Q54.3047,20.7188 54.3047,22.8125 Q54.3047,24.9063 54.9922,25.9844 Q55.6797,27.0469 57.0234,27.0469 Q57.6484,27.0469 58.2422,26.7813 Q58.8359,26.5 59.4609,25.9219 L59.4609,28.6406 Z " fill="#000000"/><text fill="#000000" font-family="sans-serif" font-size="14" lengthAdjust="spacing" textLength="56.9707" x="76.9922" y="27.8467">Tehtava</text><line style="stroke:#181818;stroke-width:0.5;" x1="8" x2="170.4551" y1="39" y2="39"/><g data-visibility-modifier="PRIVATE_FIELD"><rect fill="none" height="6" style="stroke:#C82930;stroke-width:1;" width="6" x="15" y="49.6484"/></g><text fill="#000000" font-family="sans-serif" font-size="14" lengthAdjust="spacing" textLength="76.5215" x="27" y="55.9951">String nimi</text><g data-visibility-modifier="PRIVATE_FIELD"><rect fill="none" height="6" style="stroke:#C82930;stroke-width:1;" width="6" x="15" y="65.9453"/></g><text fill="#000000" font-family="sans-serif" font-size="14" lengthAdjust="spacing" textLength="96.2432" x="27" y="72.292">String kuvaus</text><g data-visibility-modifier="PRIVATE_FIELD"><rect fill="none" height="6" style="stroke:#C82930;stroke-width:1;" width="6" x="15" y="82.2422"/></g><text fill="#000000" font-family="sans-serif" font-size="14" lengthAdjust="spacing" textLength="138.4551" x="27" y="88.5889">Kategoria kategoria</text><line style="stroke:#181818;stroke-width:0.5;" x1="8" x2="170.4551" y1="95.8906" y2="95.8906"/></g><!--class Kategoria--><g class="entity" data-qualified-name="Kategoria" data-source-line="7" id="ent0003"><rect fill="#F1F1F1" height="64.2969" rx="2.5" ry="2.5" style="stroke:#181818;stroke-width:0.5;" width="102.5215" x="37.97" y="163.89"/><ellipse cx="54.3121" cy="179.89" fill="#ADD1B2" rx="11" ry="11" style="stroke:#181818;stroke-width:1;"/><path d="M57.2808,185.5306 Q56.7027,185.8275 56.0621,185.9681 Q55.4215,186.1244 54.7183,186.1244 Q52.2183,186.1244 50.8902,184.4838 Q49.5777,182.8275 49.5777,179.7025 Q49.5777,176.5775 50.8902,174.9213 Q52.2183,173.265 54.7183,173.265 Q55.4215,173.265 56.0621,173.4213 Q56.7183,173.5775 57.2808,173.8744 L57.2808,176.5931 Q56.6558,176.015 56.0621,175.7494 Q55.4683,175.4681 54.8433,175.4681 Q53.4996,175.4681 52.8121,176.5463 Q52.1246,177.6088 52.1246,179.7025 Q52.1246,181.7963 52.8121,182.8744 Q53.4996,183.9369 54.8433,183.9369 Q55.4683,183.9369 56.0621,183.6713 Q56.6558,183.39 57.2808,182.8119 L57.2808,185.5306 Z " fill="#000000"/><text fill="#000000" font-family="sans-serif" font-size="14" lengthAdjust="spacing" textLength="67.5391" x="68.6103" y="184.7367">Kategoria</text><line style="stroke:#181818;stroke-width:0.5;" x1="38.97" x2="139.4915" y1="195.89" y2="195.89"/><g data-visibility-modifier="PRIVATE_FIELD"><rect fill="none" height="6" style="stroke:#C82930;stroke-width:1;" width="6" x="45.97" y="206.5384"/></g><text fill="#000000" font-family="sans-serif" font-size="14" lengthAdjust="spacing" textLength="76.5215" x="57.97" y="212.8851">String nimi</text><line style="stroke:#181818;stroke-width:0.5;" x1="38.97" x2="139.4915" y1="220.1869" y2="220.1869"/></g><!--link Tehtava to Kategoria--><g class="link" data-entity-1="ent0002" data-entity-2="ent0003" data-link-type="dependency" data-source-line="11" id="lnk4"><path codeLine="11" d="M89.23,104.14 C89.23,123.88 89.23,140.2 89.23,157.79" fill="none" id="Tehtava-to-Kategoria" style="stroke:#181818;stroke-width:1;stroke-dasharray:7,7;"/><polygon fill="#181818" points="89.23,163.79,93.23,154.79,89.23,158.79,85.23,154.79,89.23,163.79" style="stroke:#181818;stroke-width:1;"/></g><?plantuml-src Iyv9B2vM24dDA4aiIrIevb800jtWagBCl7I5lCpSJ1I1xDAonD9YY91tOabgUdvHPg92Dep5LSl5bGms3o69nKIWAfXzUdfs2BK0?></g></svg>