<svg xmlns="http://www.w3.org/2000/svg" xmlns:xlink="http://www.w3.org/1999/xlink" version="1.1" data-diagram-type="CLASS" style="width:186px;height:243px;background:#FFFFFF;" width="186px" height="243px" viewBox="0 0 186 243" zoomAndPan="magnify" preserveAspectRatio="none" contentStyleType="text/css"><?plantuml 1.2026.8beta1?><defs/><g font-family="sans-serif" lengthAdjust="spacing"><!--class Tehtava--><g class="entity" data-qualified-name="Tehtava" id="ent0001" data-source-line="1"><rect x="7" y="7" width="164.455" height="96.891" fill="#F1F1F1" style="stroke:#181818;stroke-width:0.5;" rx="2.5" ry="2.5"/><ellipse cx="56.492" cy="23" rx="11" ry="11" fill="#ADD1B2" style="stroke:#181818;stroke-width:1;"/><path d="M59.461,28.641 Q58.883,28.938 58.242,29.078 Q57.602,29.234 56.898,29.234 Q54.398,29.234 53.07,27.594 Q51.758,25.938 51.758,22.813 Q51.758,19.688 53.07,18.031 Q54.398,16.375 56.898,16.375 Q57.602,16.375 58.242,16.531 Q58.898,16.688 59.461,16.984 L59.461,19.703 Q58.836,19.125 58.242,18.859 Q57.648,18.578 57.023,18.578 Q55.68,18.578 54.992,19.656 Q54.305,20.719 54.305,22.813 Q54.305,24.906 54.992,25.984 Q55.68,27.047 57.023,27.047 Q57.648,27.047 58.242,26.781 Q58.836,26.5 59.461,25.922 L59.461,28.641 Z " fill="#000"/><text x="76.992" y="27.847" fill="#000" font-size="14" textLength="56.971">Tehtava</text><line x1="8" y1="39" x2="170.455" y2="39" style="stroke:#181818;stroke-width:0.5;"/><g data-visibility-modifier="PRIVATE_FIELD"><rect x="15" y="49.648" width="6" height="6" fill="none" style="stroke:#C82930;stroke-width:1;"/></g><text x="27" y="55.995" fill="#000" font-size="14" textLength="76.521">String nimi</text><g data-visibility-modifier="PRIVATE_FIELD"><rect x="15" y="65.945" width="6" height="6" fill="none" style="stroke:#C82930;stroke-width:1;"/></g><text x="27" y="72.292" fill="#000" font-size="14" textLength="96.243">String kuvaus</text><g data-visibility-modifier="PRIVATE_FIELD"><rect x="15" y="82.242" width="6" height="6" fill="none" style="stroke:#C82930;stroke-width:1;"/></g><text x="27" y="88.589" fill="#000" font-size="14" textLength="138.455">Kategoria kategoria</text><line x1="8" y1="95.891" x2="170.455" y2="95.891" style="stroke:#181818;stroke-width:0.5;"/></g><!--class Kategoria--><g class="entity" data-qualified-name="Kategoria" id="ent0002" data-source-line="7"><rect x="37.97" y="163.89" width="102.521" height="64.297" fill="#F1F1F1" style="stroke:#181818;stroke-width:0.5;" rx="2.5" ry="2.5"/><ellipse cx="54.312" cy="179.89" rx="11" ry="11" fill="#ADD1B2" style="stroke:#181818;stroke-width:1;"/><path d="M57.281,185.531 Q56.703,185.828 56.062,185.968 Q55.421,186.124 54.718,186.124 Q52.218,186.124 50.89,184.484 Q49.578,182.828 49.578,179.703 Q49.578,176.578 50.89,174.921 Q52.218,173.265 54.718,173.265 Q55.421,173.265 56.062,173.421 Q56.718,173.578 57.281,173.874 L57.281,176.593 Q56.656,176.015 56.062,175.749 Q55.468,175.468 54.843,175.468 Q53.5,175.468 52.812,176.546 Q52.125,177.609 52.125,179.703 Q52.125,181.796 52.812,182.874 Q53.5,183.937 54.843,183.937 Q55.468,183.937 56.062,183.671 Q56.656,183.39 57.281,182.812 L57.281,185.531 Z " fill="#000"/><text x="68.61" y="184.737" fill="#000" font-size="14" textLength="67.539">Kategoria</text><line x1="38.97" y1="195.89" x2="139.491" y2="195.89" style="stroke:#181818;stroke-width:0.5;"/><g data-visibility-modifier="PRIVATE_FIELD"><rect x="45.97" y="206.538" width="6" height="6" fill="none" style="stroke:#C82930;stroke-width:1;"/></g><text x="57.97" y="212.885" fill="#000" font-size="14" textLength="76.521">String nimi</text><line x1="38.97" y1="220.187" x2="139.491" y2="220.187" style="stroke:#181818;stroke-width:0.5;"/></g><!--link Tehtava to Kategoria--><g class="link" data-entity-1="ent0001" data-entity-2="ent0002" id="lnk3" data-source-line="11" data-link-type="dependency"><path d="M89.23,104.14 C89.23,123.88 89.23,141.2 89.23,158.79" style="stroke:#181818;stroke-width:1;stroke-dasharray:7,7;" fill="none" id="Tehtava-to-Kategoria" codeLine="11"/><polygon points="89.23,163.79,93.23,154.79,89.23,158.79,85.23,154.79,89.23,163.79" fill="#181818" style="stroke:#181818;stroke-width:1;stroke-linejoin:miter;stroke-miterlimit:10;"/></g><?plantuml-src Iyv9B2vM24dDA4aiIrIevb800jtWagBCl7I5lCpSJ1I1xDAonD9YY91tOabgUdvHPg92Dep5LSl5bGms3o69nKIWAfXzUdfs2BK0?></g></svg>