<svg xmlns="http://www.w3.org/2000/svg" xmlns:xlink="http://www.w3.org/1999/xlink" version="1.1" data-diagram-type="CLASS" style="width:410px;height:434px;background:#FFFFFF;" width="410px" height="434px" viewBox="0 0 410 434" zoomAndPan="magnify" preserveAspectRatio="none" contentStyleType="text/css"><?plantuml 1.2026.8beta1?><defs/><g font-family="sans-serif" lengthAdjust="spacing"><!--class Tuote--><g class="entity" data-qualified-name="Tuote" id="ent0001" data-source-line="1"><rect x="26.54" y="164.6" width="129.626" height="96.891" fill="#F1F1F1" style="stroke:#181818;stroke-width:0.5;" rx="2.5" ry="2.5"/><ellipse cx="67.43" cy="180.6" rx="11" ry="11" fill="#ADD1B2" style="stroke:#181818;stroke-width:1;"/><path d="M70.399,186.241 Q69.821,186.538 69.18,186.678 Q68.539,186.834 67.836,186.834 Q65.336,186.834 64.008,185.194 Q62.696,183.538 62.696,180.413 Q62.696,177.288 64.008,175.631 Q65.336,173.975 67.836,173.975 Q68.539,173.975 69.18,174.131 Q69.836,174.288 70.399,174.584 L70.399,177.303 Q69.774,176.725 69.18,176.459 Q68.586,176.178 67.961,176.178 Q66.617,176.178 65.93,177.256 Q65.242,178.319 65.242,180.413 Q65.242,182.506 65.93,183.584 Q66.617,184.647 67.961,184.647 Q68.586,184.647 69.18,184.381 Q69.774,184.1 70.399,183.522 L70.399,186.241 Z " fill="#000"/><text x="87.183" y="185.447" fill="#000" font-size="14" textLength="40.093">Tuote</text><line x1="27.54" y1="196.6" x2="155.166" y2="196.6" style="stroke:#181818;stroke-width:0.5;"/><g data-visibility-modifier="PRIVATE_FIELD"><rect x="34.54" y="207.248" width="6" height="6" fill="none" style="stroke:#C82930;stroke-width:1;"/></g><text x="46.54" y="213.595" fill="#000" font-size="14" textLength="103.626">String tunniste</text><g data-visibility-modifier="PRIVATE_FIELD"><rect x="34.54" y="223.545" width="6" height="6" fill="none" style="stroke:#C82930;stroke-width:1;"/></g><text x="46.54" y="229.892" fill="#000" font-size="14" textLength="76.521">String nimi</text><g data-visibility-modifier="PRIVATE_FIELD"><rect x="34.54" y="239.842" width="6" height="6" fill="none" style="stroke:#C82930;stroke-width:1;"/></g><text x="46.54" y="246.189" fill="#000" font-size="14" textLength="87.869">double hinta</text><line x1="27.54" y1="253.491" x2="155.166" y2="253.491" style="stroke:#181818;stroke-width:0.5;"/></g><!--class Ostosrivi--><g class="entity" data-qualified-name="Ostosrivi" id="ent0002" data-source-line="7"><rect x="197.01" y="338.49" width="192.694" height="80.594" fill="#F1F1F1" style="stroke:#181818;stroke-width:0.5;" rx="2.5" ry="2.5"/><ellipse cx="258.366" cy="354.49" rx="11" ry="11" fill="#ADD1B2" style="stroke:#181818;stroke-width:1;"/><path d="M261.335,360.131 Q260.757,360.427 260.116,360.568 Q259.475,360.724 258.772,360.724 Q256.272,360.724 254.944,359.084 Q253.632,357.427 253.632,354.302 Q253.632,351.177 254.944,349.521 Q256.272,347.865 258.772,347.865 Q259.475,347.865 260.116,348.021 Q260.772,348.177 261.335,348.474 L261.335,351.193 Q260.71,350.615 260.116,350.349 Q259.522,350.068 258.897,350.068 Q257.553,350.068 256.866,351.146 Q256.178,352.209 256.178,354.302 Q256.178,356.396 256.866,357.474 Q257.553,358.537 258.897,358.537 Q259.522,358.537 260.116,358.271 Q260.71,357.99 261.335,357.412 L261.335,360.131 Z " fill="#000"/><text x="278.866" y="359.337" fill="#000" font-size="14" textLength="61.482">Ostosrivi</text><line x1="198.01" y1="370.49" x2="388.704" y2="370.49" style="stroke:#181818;stroke-width:0.5;"/><g data-visibility-modifier="PRIVATE_FIELD"><rect x="205.01" y="381.138" width="6" height="6" fill="none" style="stroke:#C82930;stroke-width:1;"/></g><text x="217.01" y="387.485" fill="#000" font-size="14" textLength="166.694">String tuotteenTunniste</text><g data-visibility-modifier="PRIVATE_FIELD"><rect x="205.01" y="397.435" width="6" height="6" fill="none" style="stroke:#C82930;stroke-width:1;"/></g><text x="217.01" y="403.782" fill="#000" font-size="14" textLength="67.833">int maara</text><line x1="198.01" y1="411.084" x2="388.704" y2="411.084" style="stroke:#181818;stroke-width:0.5;"/></g><!--class Ostostapahtuma--><g class="entity" data-qualified-name="Ostostapahtuma" id="ent0003" data-source-line="12"><rect x="191.17" y="172.74" width="204.384" height="80.594" fill="#F1F1F1" style="stroke:#181818;stroke-width:0.5;" rx="2.5" ry="2.5"/><ellipse cx="231.251" cy="188.74" rx="11" ry="11" fill="#ADD1B2" style="stroke:#181818;stroke-width:1;"/><path d="M234.22,194.381 Q233.642,194.677 233.001,194.818 Q232.36,194.974 231.657,194.974 Q229.157,194.974 227.829,193.334 Q226.517,191.677 226.517,188.552 Q226.517,185.427 227.829,183.771 Q229.157,182.115 231.657,182.115 Q232.36,182.115 233.001,182.271 Q233.657,182.427 234.22,182.724 L234.22,185.443 Q233.595,184.865 233.001,184.599 Q232.407,184.318 231.782,184.318 Q230.438,184.318 229.751,185.396 Q229.063,186.459 229.063,188.552 Q229.063,190.646 229.751,191.724 Q230.438,192.787 231.782,192.787 Q232.407,192.787 233.001,192.521 Q233.595,192.24 234.22,191.662 L234.22,194.381 Z " fill="#000"/><text x="250.824" y="193.587" fill="#000" font-size="14" textLength="116.648">Ostostapahtuma</text><line x1="192.17" y1="204.74" x2="394.554" y2="204.74" style="stroke:#181818;stroke-width:0.5;"/><g data-visibility-modifier="PRIVATE_FIELD"><rect x="199.17" y="215.388" width="6" height="6" fill="none" style="stroke:#C82930;stroke-width:1;"/></g><text x="211.17" y="221.735" fill="#000" font-size="14" textLength="138.291">LocalDateTime aika</text><g data-visibility-modifier="PRIVATE_FIELD"><rect x="199.17" y="231.685" width="6" height="6" fill="none" style="stroke:#C82930;stroke-width:1;"/></g><text x="211.17" y="238.032" fill="#000" font-size="14" textLength="178.384">List&lt;Ostosrivi> ostosrivit</text><line x1="192.17" y1="245.334" x2="394.554" y2="245.334" style="stroke:#181818;stroke-width:0.5;"/></g><!--class OstostapahtumaHallinta--><g class="entity" data-qualified-name="OstostapahtumaHallinta" id="ent0004" data-source-line="17"><rect x="7" y="7" width="314.716" height="80.594" fill="#F1F1F1" style="stroke:#181818;stroke-width:0.5;" rx="2.5" ry="2.5"/><ellipse cx="74.925" cy="23" rx="11" ry="11" fill="#ADD1B2" style="stroke:#181818;stroke-width:1;"/><path d="M77.894,28.641 Q77.316,28.938 76.675,29.078 Q76.035,29.234 75.332,29.234 Q72.832,29.234 71.503,27.594 Q70.191,25.938 70.191,22.813 Q70.191,19.688 71.503,18.031 Q72.832,16.375 75.332,16.375 Q76.035,16.375 76.675,16.531 Q77.332,16.688 77.894,16.984 L77.894,19.703 Q77.269,19.125 76.675,18.859 Q76.082,18.578 75.457,18.578 Q74.113,18.578 73.425,19.656 Q72.738,20.719 72.738,22.813 Q72.738,24.906 73.425,25.984 Q74.113,27.047 75.457,27.047 Q76.082,27.047 76.675,26.781 Q77.269,26.5 77.894,25.922 L77.894,28.641 Z " fill="#000"/><text x="95.425" y="27.847" fill="#000" font-size="14" textLength="170.365">OstostapahtumaHallinta</text><line x1="8" y1="39" x2="320.716" y2="39" style="stroke:#181818;stroke-width:0.5;"/><g data-visibility-modifier="PRIVATE_FIELD"><rect x="15" y="49.648" width="6" height="6" fill="none" style="stroke:#C82930;stroke-width:1;"/></g><text x="27" y="55.995" fill="#000" font-size="14" textLength="149.099">List&lt;Tuote> tuotteet</text><g data-visibility-modifier="PRIVATE_FIELD"><rect x="15" y="65.945" width="6" height="6" fill="none" style="stroke:#C82930;stroke-width:1;"/></g><text x="27" y="72.292" fill="#000" font-size="14" textLength="288.716">List&lt;Ostostapahtuma> ostostapahtumat</text><line x1="8" y1="79.594" x2="320.716" y2="79.594" style="stroke:#181818;stroke-width:0.5;"/></g><!--link OstostapahtumaHallinta to Tuote--><g class="link" data-entity-1="ent0004" data-entity-2="ent0001" id="lnk5" data-source-line="22" data-link-type="dependency"><path d="M146.69,87.94 C136.43,110.94 125.486,135.493 114.676,159.743" style="stroke:#181818;stroke-width:1;" fill="none" id="OstostapahtumaHallinta-to-Tuote" codeLine="22"/><polygon points="112.64,164.31,119.958,157.718,114.676,159.743,112.651,154.461,112.64,164.31" fill="#181818" style="stroke:#181818;stroke-width:1;stroke-linejoin:miter;stroke-miterlimit:10;"/><text x="132.36" y="130.667" fill="#000" font-size="13" textLength="49.766">sisältää</text><text x="135.258" y="107.69" fill="#000" font-size="13">1</text><text x="91.019" y="153.478" fill="#000" font-size="13" textLength="23.036">1..*</text></g><!--link OstostapahtumaHallinta to Ostostapahtuma--><g class="link" data-entity-1="ent0004" data-entity-2="ent0003" id="lnk6" data-source-line="23" data-link-type="dependency"><path d="M195.59,87.94 C215.79,113.59 238.907,142.922 259.097,168.562" style="stroke:#181818;stroke-width:1;" fill="none" id="OstostapahtumaHallinta-to-Ostostapahtuma" codeLine="23"/><polygon points="262.19,172.49,259.765,162.944,259.097,168.562,253.479,167.894,262.19,172.49" fill="#181818" style="stroke:#181818;stroke-width:1;stroke-linejoin:miter;stroke-miterlimit:10;"/><text x="229.36" y="130.667" fill="#000" font-size="13" textLength="49.766">sisältää</text><text x="191.952" y="107.69" fill="#000" font-size="13">1</text><text x="232.125" y="161.61" fill="#000" font-size="13" textLength="23.036">1..*</text></g><!--link Ostostapahtuma to Ostosrivi--><g class="link" data-entity-1="ent0003" data-entity-2="ent0002" id="lnk7" data-source-line="24" data-link-type="dependency"><path d="M293.36,253.68 C293.36,279.33 293.36,307.59 293.36,333.23" style="stroke:#181818;stroke-width:1;" fill="none" id="Ostostapahtuma-to-Ostosrivi" codeLine="24"/><polygon points="293.36,338.23,297.36,329.23,293.36,333.23,289.36,329.23,293.36,338.23" fill="#181818" style="stroke:#181818;stroke-width:1;stroke-linejoin:miter;stroke-miterlimit:10;"/><text x="294.36" y="304.557" fill="#000" font-size="13" textLength="49.766">sisältää</text><text x="284.744" y="273.43" fill="#000" font-size="13">1</text><text x="268.459" y="327.348" fill="#000" font-size="13" textLength="23.036">1..*</text></g><?plantuml-src ZP5D3e8m48NtFSM4fGaaRerXvSA5YGkvm8YDJEoFeOCRussu2HUpD801nDXDfpDvtvkyvWgTWwooBE4fm9yOJboIkG9Nnf1ZEUuQqjHrBhOwAma56KRn4Y8FhADZwqfwq9ndcQKqsPZhrQ0Hooc2yOu5Lne7pi7cg7R8CYCj0Uc6_S3ZjeDl2hOlUOcvHwNQjJ_i5X5YIFj5UKOVv9t5y0u-2mxHEe8uJlsT9AkeYte3ZbnJAsxgflvJEKdb5-AhDFp9IFK6?></g></svg>