<svg xmlns="http://www.w3.org/2000/svg" xmlns:xlink="http://www.w3.org/1999/xlink" contentStyleType="text/css" data-diagram-type="CLASS" height="135px" preserveAspectRatio="none" style="width:734px;height:135px;background:#FFFFFF;" version="1.1" viewBox="0 0 734 135" width="734px" zoomAndPan="magnify"><?plantuml 1.2026.3beta4?><defs/><g><!--class Lainaus--><g class="entity" data-qualified-name="Lainaus" data-source-line="3" id="ent0002"><rect fill="#F1F1F1" height="113.1875" rx="2.5" ry="2.5" style="stroke:#181818;stroke-width:0.5;" width="238.2627" x="480.85" y="7"/><ellipse cx="568.7875" cy="23" fill="#ADD1B2" rx="11" ry="11" style="stroke:#181818;stroke-width:1;"/><path d="M571.7563,28.6406 Q571.1781,28.9375 570.5375,29.0781 Q569.8969,29.2344 569.1938,29.2344 Q566.6938,29.2344 565.3656,27.5938 Q564.0531,25.9375 564.0531,22.8125 Q564.0531,19.6875 565.3656,18.0313 Q566.6938,16.375 569.1938,16.375 Q569.8969,16.375 570.5375,16.5313 Q571.1938,16.6875 571.7563,16.9844 L571.7563,19.7031 Q571.1313,19.125 570.5375,18.8594 Q569.9438,18.5781 569.3188,18.5781 Q567.975,18.5781 567.2875,19.6563 Q566.6,20.7188 566.6,22.8125 Q566.6,24.9063 567.2875,25.9844 Q567.975,27.0469 569.3188,27.0469 Q569.9438,27.0469 570.5375,26.7813 Q571.1313,26.5 571.7563,25.9219 L571.7563,28.6406 Z " fill="#000000"/><text fill="#000000" font-family="sans-serif" font-size="14" lengthAdjust="spacing" textLength="53.8877" x="589.2875" y="27.8467">Lainaus</text><line style="stroke:#181818;stroke-width:0.5;" x1="481.85" x2="718.1127" y1="39" y2="39"/><g data-visibility-modifier="PRIVATE_FIELD"><rect fill="none" height="6" style="stroke:#C82930;stroke-width:1;" width="6" x="488.85" y="49.6484"/></g><text fill="#000000" font-family="sans-serif" font-size="14" lengthAdjust="spacing" textLength="132.9795" x="500.85" y="55.9951">String lainaajaNimi</text><g data-visibility-modifier="PRIVATE_FIELD"><rect fill="none" height="6" style="stroke:#C82930;stroke-width:1;" width="6" x="488.85" y="65.9453"/></g><text fill="#000000" font-family="sans-serif" font-size="14" lengthAdjust="spacing" textLength="193.1631" x="500.85" y="72.292">LocalDateTime lainattuPvm</text><g data-visibility-modifier="PRIVATE_FIELD"><rect fill="none" height="6" style="stroke:#C82930;stroke-width:1;" width="6" x="488.85" y="82.2422"/></g><text fill="#000000" font-family="sans-serif" font-size="14" lengthAdjust="spacing" textLength="199.9648" x="500.85" y="88.5889">LocalDateTime palautusPvm</text><g data-visibility-modifier="PRIVATE_FIELD"><rect fill="none" height="6" style="stroke:#C82930;stroke-width:1;" width="6" x="488.85" y="98.5391"/></g><text fill="#000000" font-family="sans-serif" font-size="14" lengthAdjust="spacing" textLength="212.2627" x="500.85" y="104.8857">LocalDateTime palautettuPvm</text><line style="stroke:#181818;stroke-width:0.5;" x1="481.85" x2="718.1127" y1="112.1875" y2="112.1875"/></g><!--class Kirja--><g class="entity" data-qualified-name="Kirja" data-source-line="10" id="ent0003"><rect fill="#F1F1F1" height="113.1875" rx="2.5" ry="2.5" style="stroke:#181818;stroke-width:0.5;" width="204.459" x="214.39" y="7"/><ellipse cx="296.722" cy="23" fill="#ADD1B2" rx="11" ry="11" style="stroke:#181818;stroke-width:1;"/><path d="M299.6908,28.6406 Q299.1127,28.9375 298.472,29.0781 Q297.8314,29.2344 297.1283,29.2344 Q294.6283,29.2344 293.3002,27.5938 Q291.9877,25.9375 291.9877,22.8125 Q291.9877,19.6875 293.3002,18.0313 Q294.6283,16.375 297.1283,16.375 Q297.8314,16.375 298.472,16.5313 Q299.1283,16.6875 299.6908,16.9844 L299.6908,19.7031 Q299.0658,19.125 298.472,18.8594 Q297.8783,18.5781 297.2533,18.5781 Q295.9095,18.5781 295.222,19.6563 Q294.5345,20.7188 294.5345,22.8125 Q294.5345,24.9063 295.222,25.9844 Q295.9095,27.0469 297.2533,27.0469 Q297.8783,27.0469 298.472,26.7813 Q299.0658,26.5 299.6908,25.9219 L299.6908,28.6406 Z " fill="#000000"/><text fill="#000000" font-family="sans-serif" font-size="14" lengthAdjust="spacing" textLength="31.2949" x="317.222" y="27.8467">Kirja</text><line style="stroke:#181818;stroke-width:0.5;" x1="215.39" x2="417.849" y1="39" y2="39"/><g data-visibility-modifier="PRIVATE_FIELD"><rect fill="none" height="6" style="stroke:#C82930;stroke-width:1;" width="6" x="222.39" y="49.6484"/></g><text fill="#000000" font-family="sans-serif" font-size="14" lengthAdjust="spacing" textLength="76.5215" x="234.39" y="55.9951">String nimi</text><g data-visibility-modifier="PRIVATE_FIELD"><rect fill="none" height="6" style="stroke:#C82930;stroke-width:1;" width="6" x="222.39" y="65.9453"/></g><text fill="#000000" font-family="sans-serif" font-size="14" lengthAdjust="spacing" textLength="84.7998" x="234.39" y="72.292">String tekija</text><g data-visibility-modifier="PRIVATE_FIELD"><rect fill="none" height="6" style="stroke:#C82930;stroke-width:1;" width="6" x="222.39" y="82.2422"/></g><text fill="#000000" font-family="sans-serif" font-size="14" lengthAdjust="spacing" textLength="75.1748" x="234.39" y="88.5889">String isbn</text><g data-visibility-modifier="PRIVATE_FIELD"><rect fill="none" height="6" style="stroke:#C82930;stroke-width:1;" width="6" x="222.39" y="98.5391"/></g><text fill="#000000" font-family="sans-serif" font-size="14" lengthAdjust="spacing" textLength="178.459" x="234.39" y="104.8857">List&lt;Lainaus&gt; lainaukset</text><line style="stroke:#181818;stroke-width:0.5;" x1="215.39" x2="417.849" y1="112.1875" y2="112.1875"/></g><!--class Kirjasto--><g class="entity" data-qualified-name="Kirjasto" data-source-line="17" id="ent0004"><rect fill="#F1F1F1" height="64.2969" rx="2.5" ry="2.5" style="stroke:#181818;stroke-width:0.5;" width="145.3896" x="7" y="31.45"/><ellipse cx="49.3357" cy="47.45" fill="#ADD1B2" rx="11" ry="11" style="stroke:#181818;stroke-width:1;"/><path d="M52.3045,53.0906 Q51.7264,53.3875 51.0857,53.5281 Q50.4451,53.6844 49.742,53.6844 Q47.242,53.6844 45.9139,52.0438 Q44.6014,50.3875 44.6014,47.2625 Q44.6014,44.1375 45.9139,42.4813 Q47.242,40.825 49.742,40.825 Q50.4451,40.825 51.0857,40.9813 Q51.742,41.1375 52.3045,41.4344 L52.3045,44.1531 Q51.6795,43.575 51.0857,43.3094 Q50.492,43.0281 49.867,43.0281 Q48.5232,43.0281 47.8357,44.1063 Q47.1482,45.1688 47.1482,47.2625 Q47.1482,49.3563 47.8357,50.4344 Q48.5232,51.4969 49.867,51.4969 Q50.492,51.4969 51.0857,51.2313 Q51.6795,50.95 52.3045,50.3719 L52.3045,53.0906 Z " fill="#000000"/><text fill="#000000" font-family="sans-serif" font-size="14" lengthAdjust="spacing" textLength="52.6436" x="69.4104" y="52.2967">Kirjasto</text><line style="stroke:#181818;stroke-width:0.5;" x1="8" x2="151.3896" y1="63.45" y2="63.45"/><g data-visibility-modifier="PRIVATE_FIELD"><rect fill="none" height="6" style="stroke:#C82930;stroke-width:1;" width="6" x="15" y="74.0984"/></g><text fill="#000000" font-family="sans-serif" font-size="14" lengthAdjust="spacing" textLength="119.3896" x="27" y="80.4451">List&lt;Kirja&gt; kirjat</text><line style="stroke:#181818;stroke-width:0.5;" x1="8" x2="151.3896" y1="87.7469" y2="87.7469"/></g><!--link Kirjasto to Kirja--><g class="link" data-entity-1="ent0004" data-entity-2="ent0003" data-link-type="dependency" data-source-line="21" id="lnk5"><path codeLine="21" d="M152.78,63.6 C172.2,63.6 187.58,63.6 208.27,63.6" fill="none" id="Kirjasto-to-Kirja" style="stroke:#181818;stroke-width:1;"/><polygon fill="#181818" points="214.27,63.6,205.27,59.6,209.27,63.6,205.27,67.6,214.27,63.6" style="stroke:#181818;stroke-width:1;"/><text fill="#000000" font-family="sans-serif" font-size="13" lengthAdjust="spacing" textLength="0" x="183.39" y="52.6">sis&#228;lt&#228;&#228;</text><text fill="#000000" font-family="sans-serif" font-size="13" lengthAdjust="spacing" textLength="8.271" x="160.3814" y="79.4778">1</text><text fill="#000000" font-family="sans-serif" font-size="13" lengthAdjust="spacing" textLength="23.0356" x="183.2662" y="79.2653">1..*</text></g><!--link Kirja to Lainaus--><g class="link" data-entity-1="ent0003" data-entity-2="ent0002" data-link-type="dependency" data-source-line="22" id="lnk6"><path codeLine="22" d="M419.2,63.6 C439.19,63.6 454.32,63.6 474.8,63.6" fill="none" id="Kirja-to-Lainaus" style="stroke:#181818;stroke-width:1;"/><polygon fill="#181818" points="480.8,63.6,471.8,59.6,475.8,63.6,471.8,67.6,480.8,63.6" style="stroke:#181818;stroke-width:1;"/><text fill="#000000" font-family="sans-serif" font-size="13" lengthAdjust="spacing" textLength="0" x="449.85" y="52.6">tehd&#228;&#228;n</text><text fill="#000000" font-family="sans-serif" font-size="13" lengthAdjust="spacing" textLength="8.271" x="426.7035" y="79.2653">1</text><text fill="#000000" font-family="sans-serif" font-size="13" lengthAdjust="spacing" textLength="23.0356" x="449.8377" y="79.1943">1..*</text></g><?plantuml-src VP1D3e9038NtdA9XQGA9Ms9OkTCO4xr0XH4Ams1enmtnDjo4YyclFyIuQkQzr-dNQdKLa18gIbA1c2eL2PN6SIADpB17CcWPQWV0WvDKP1BGlOWP7gYWGT-N4UejYZfJeKPRn1xlnG_tXXgjMFxdggdxCMFigChm6yBCmwUtg9mo_5I8BsOSGIoRQPDmnBCvArdypzqPwdV3e8MGzsM8laBksWNF2xlg-ojtWWk0YTj6IzkqpPXT1kTZ1Xri6lSvymG0?></g></svg>