<?plantuml 1.2026.3beta3?><svg xmlns="http://www.w3.org/2000/svg" xmlns:xlink="http://www.w3.org/1999/xlink" contentStyleType="text/css" data-diagram-type="CLASS" height="259px" preserveAspectRatio="none" style="width:429px;height:259px;background:#FFFFFF;" version="1.1" viewBox="0 0 429 259" width="429px" zoomAndPan="magnify"><defs/><g><!--class Kategoria--><g class="entity" data-qualified-name="Kategoria" data-source-line="1" id="ent0002"><rect fill="#F1F1F1" height="113.1875" rx="2.5" ry="2.5" style="stroke:#181818;stroke-width:0.5;" width="240.9082" x="7" y="7"/><ellipse cx="89.4346" cy="23" fill="#ADD1B2" rx="11" ry="11" style="stroke:#181818;stroke-width:1;"/><path d="M92.4033,28.6406 Q91.8252,28.9375 91.1846,29.0781 Q90.5439,29.2344 89.8408,29.2344 Q87.3408,29.2344 86.0127,27.5938 Q84.7002,25.9375 84.7002,22.8125 Q84.7002,19.6875 86.0127,18.0313 Q87.3408,16.375 89.8408,16.375 Q90.5439,16.375 91.1846,16.5313 Q91.8408,16.6875 92.4033,16.9844 L92.4033,19.7031 Q91.7783,19.125 91.1846,18.8594 Q90.5908,18.5781 89.9658,18.5781 Q88.6221,18.5781 87.9346,19.6563 Q87.2471,20.7188 87.2471,22.8125 Q87.2471,24.9063 87.9346,25.9844 Q88.6221,27.0469 89.9658,27.0469 Q90.5908,27.0469 91.1846,26.7813 Q91.7783,26.5 92.4033,25.9219 L92.4033,28.6406 Z " fill="#000000"/><text fill="#000000" font-family="sans-serif" font-size="14" lengthAdjust="spacing" textLength="67.5391" x="109.9346" y="27.8467">Kategoria</text><line style="stroke:#181818;stroke-width:0.5;" x1="8" x2="246.9082" y1="39" y2="39"/><g data-visibility-modifier="PRIVATE_FIELD"><rect fill="none" height="6" style="stroke:#C82930;stroke-width:1;" width="6" x="15" y="49.6484"/></g><text fill="#000000" font-family="sans-serif" font-size="14" lengthAdjust="spacing" textLength="146.5967" x="27" y="55.9951">Boolean valttamaton</text><g data-visibility-modifier="PRIVATE_FIELD"><rect fill="none" height="6" style="stroke:#C82930;stroke-width:1;" width="6" x="15" y="65.9453"/></g><text fill="#000000" font-family="sans-serif" font-size="14" lengthAdjust="spacing" textLength="76.5215" x="27" y="72.292">String nimi</text><g data-visibility-modifier="PRIVATE_FIELD"><rect fill="none" height="6" style="stroke:#C82930;stroke-width:1;" width="6" x="15" y="82.2422"/></g><text fill="#000000" font-family="sans-serif" font-size="14" lengthAdjust="spacing" textLength="96.2432" x="27" y="88.5889">String kuvaus</text><g data-visibility-modifier="PRIVATE_FIELD"><rect fill="none" height="6" style="stroke:#C82930;stroke-width:1;" width="6" x="15" y="98.5391"/></g><text fill="#000000" font-family="sans-serif" font-size="14" lengthAdjust="spacing" textLength="214.9082" x="27" y="104.8857">List&lt;Tapahtuma&gt; tapahtumat</text><line style="stroke:#181818;stroke-width:0.5;" x1="8" x2="246.9082" y1="112.1875" y2="112.1875"/></g><!--class Tapahtuma--><g class="entity" data-qualified-name="Tapahtuma" data-source-line="8" id="ent0003"><rect fill="#F1F1F1" height="96.8906" rx="2.5" ry="2.5" style="stroke:#181818;stroke-width:0.5;" width="131.2529" x="282.83" y="15.14"/><ellipse cx="306.4718" cy="31.14" fill="#ADD1B2" rx="11" ry="11" style="stroke:#181818;stroke-width:1;"/><path d="M309.4406,36.7806 Q308.8625,37.0775 308.2218,37.2181 Q307.5812,37.3744 306.8781,37.3744 Q304.3781,37.3744 303.05,35.7337 Q301.7375,34.0775 301.7375,30.9525 Q301.7375,27.8275 303.05,26.1712 Q304.3781,24.515 306.8781,24.515 Q307.5812,24.515 308.2218,24.6712 Q308.8781,24.8275 309.4406,25.1244 L309.4406,27.8431 Q308.8156,27.265 308.2218,26.9994 Q307.6281,26.7181 307.0031,26.7181 Q305.6593,26.7181 304.9718,27.7962 Q304.2843,28.8587 304.2843,30.9525 Q304.2843,33.0462 304.9718,34.1244 Q305.6593,35.1869 307.0031,35.1869 Q307.6281,35.1869 308.2218,34.9212 Q308.8156,34.64 309.4406,34.0619 L309.4406,36.7806 Z " fill="#000000"/><text fill="#000000" font-family="sans-serif" font-size="14" lengthAdjust="spacing" textLength="80.0488" x="322.3923" y="35.9867">Tapahtuma</text><line style="stroke:#181818;stroke-width:0.5;" x1="283.83" x2="413.0829" y1="47.14" y2="47.14"/><g data-visibility-modifier="PRIVATE_FIELD"><rect fill="none" height="6" style="stroke:#C82930;stroke-width:1;" width="6" x="290.83" y="57.7884"/></g><text fill="#000000" font-family="sans-serif" font-size="14" lengthAdjust="spacing" textLength="76.5215" x="302.83" y="64.1351">String nimi</text><g data-visibility-modifier="PRIVATE_FIELD"><rect fill="none" height="6" style="stroke:#C82930;stroke-width:1;" width="6" x="290.83" y="74.0853"/></g><text fill="#000000" font-family="sans-serif" font-size="14" lengthAdjust="spacing" textLength="104.1865" x="302.83" y="80.432">double summa</text><g data-visibility-modifier="PRIVATE_FIELD"><rect fill="none" height="6" style="stroke:#C82930;stroke-width:1;" width="6" x="290.83" y="90.3822"/></g><text fill="#000000" font-family="sans-serif" font-size="14" lengthAdjust="spacing" textLength="105.2529" x="302.83" y="96.7289">LocalDate pvm</text><line style="stroke:#181818;stroke-width:0.5;" x1="283.83" x2="413.0829" y1="104.0306" y2="104.0306"/></g><!--class Seuranta--><g class="entity" data-qualified-name="Seuranta" data-source-line="15" id="ent0004"><rect fill="#F1F1F1" height="64.2969" rx="2.5" ry="2.5" style="stroke:#181818;stroke-width:0.5;" width="217.8779" x="18.52" y="180.18"/><ellipse cx="91.3843" cy="196.18" fill="#ADD1B2" rx="11" ry="11" style="stroke:#181818;stroke-width:1;"/><path d="M94.353,201.8206 Q93.7749,202.1175 93.1343,202.2581 Q92.4936,202.4144 91.7905,202.4144 Q89.2905,202.4144 87.9624,200.7737 Q86.6499,199.1175 86.6499,195.9925 Q86.6499,192.8675 87.9624,191.2112 Q89.2905,189.555 91.7905,189.555 Q92.4936,189.555 93.1343,189.7112 Q93.7905,189.8675 94.353,190.1644 L94.353,192.8831 Q93.728,192.305 93.1343,192.0394 Q92.5405,191.7581 91.9155,191.7581 Q90.5718,191.7581 89.8843,192.8362 Q89.1968,193.8987 89.1968,195.9925 Q89.1968,198.0862 89.8843,199.1644 Q90.5718,200.2269 91.9155,200.2269 Q92.5405,200.2269 93.1343,199.9612 Q93.728,199.68 94.353,199.1019 L94.353,201.8206 Z " fill="#000000"/><text fill="#000000" font-family="sans-serif" font-size="14" lengthAdjust="spacing" textLength="63.6494" x="111.8843" y="201.0267">Seuranta</text><line style="stroke:#181818;stroke-width:0.5;" x1="19.52" x2="235.3979" y1="212.18" y2="212.18"/><g data-visibility-modifier="PRIVATE_FIELD"><rect fill="none" height="6" style="stroke:#C82930;stroke-width:1;" width="6" x="26.52" y="222.8284"/></g><text fill="#000000" font-family="sans-serif" font-size="14" lengthAdjust="spacing" textLength="191.8779" x="38.52" y="229.1751">List&lt;Kategoria&gt; kategoriat</text><line style="stroke:#181818;stroke-width:0.5;" x1="19.52" x2="235.3979" y1="236.4769" y2="236.4769"/></g><?plantuml-src NOyn3i8m34NtdC8Nu0Qe0sA3hLpW4w8IDOwhnEc2UdTAQ2h4zlqjlMVRW9pf0dM390zw6Q83dKI2GwGPGHKCbLZxNfEF0qNF_dSUouoIQtFrMOytJ7XgONIaBQfPZB7Ljgytsp_r8UKU7EN2Z2zKBC9vlP6ccJ-S3TIxaX2rSQfxVwMZiSNL_GO0?></g></svg>