<svg xmlns="http://www.w3.org/2000/svg" xmlns:xlink="http://www.w3.org/1999/xlink" contentStyleType="text/css" data-diagram-type="CLASS" height="267px" preserveAspectRatio="none" style="width:410px;height:267px;background:#FFFFFF;" version="1.1" viewBox="0 0 410 267" width="410px" zoomAndPan="magnify"><defs/><g><!--class Saadettava--><g class="entity" data-entity="Saadettava" data-source-line="1" data-uid="ent0002" id="entity_Saadettava"><rect fill="#F1F1F1" height="64.2969" rx="2.5" ry="2.5" style="stroke:#181818;stroke-width:0.5;" width="205.0605" x="7" y="15.15"/><ellipse cx="65.2969" cy="31.15" fill="#B4A7E5" rx="11" ry="11" style="stroke:#181818;stroke-width:1;"/><path d="M61.2188,26.9156 L61.2188,24.7594 L68.6094,24.7594 L68.6094,26.9156 L66.1406,26.9156 L66.1406,34.9938 L68.6094,34.9938 L68.6094,37.15 L61.2188,37.15 L61.2188,34.9938 L63.6875,34.9938 L63.6875,26.9156 L61.2188,26.9156 Z " fill="#000000"/><text fill="#000000" font-family="sans-serif" font-size="14" font-style="italic" lengthAdjust="spacing" textLength="79.9668" x="85.7969" y="35.9967">Saadettava</text><line style="stroke:#181818;stroke-width:0.5;" x1="8" x2="211.0605" y1="47.15" y2="47.15"/><line style="stroke:#181818;stroke-width:0.5;" x1="8" x2="211.0605" y1="55.15" y2="55.15"/><g data-visibility-modifier="PUBLIC_METHOD"><ellipse cx="18" cy="68.7984" fill="#84BE84" rx="3" ry="3" style="stroke:#038048;stroke-width:1;"/></g><text fill="#000000" font-family="sans-serif" font-size="14" lengthAdjust="spacing" textLength="179.0605" x="27" y="72.1451">asetaArvo(arvo: int): void</text></g><!--class Laite--><g class="entity" data-entity="Laite" data-source-line="5" data-uid="ent0003" id="entity_Laite"><rect fill="#F1F1F1" height="80.5938" rx="2.5" ry="2.5" style="stroke:#181818;stroke-width:0.5;" width="156.2998" x="247.38" y="7"/><ellipse cx="304.0944" cy="23" fill="#A9DCDF" rx="11" ry="11" style="stroke:#181818;stroke-width:1;"/><path d="M304.2037,18.3438 L303.0475,23.4219 L305.3756,23.4219 L304.2037,18.3438 Z M302.7194,16.1094 L305.7037,16.1094 L309.0631,28.5 L306.61,28.5 L305.8444,25.4375 L302.5631,25.4375 L301.8131,28.5 L299.3756,28.5 L302.7194,16.1094 Z " fill="#000000"/><text fill="#000000" font-family="sans-serif" font-size="14" font-style="italic" lengthAdjust="spacing" textLength="34.3711" x="324.5944" y="27.8467">Laite</text><line style="stroke:#181818;stroke-width:0.5;" x1="248.38" x2="402.6798" y1="39" y2="39"/><line style="stroke:#181818;stroke-width:0.5;" x1="248.38" x2="402.6798" y1="47" y2="47"/><g data-visibility-modifier="PUBLIC_METHOD"><ellipse cx="258.38" cy="60.6484" fill="#84BE84" rx="3" ry="3" style="stroke:#038048;stroke-width:1;"/></g><text fill="#000000" font-family="sans-serif" font-size="14" lengthAdjust="spacing" textLength="130.2998" x="267.38" y="63.9951">vaihdaTilaa(): void</text><g data-visibility-modifier="PUBLIC_METHOD"><ellipse cx="258.38" cy="76.9453" fill="#84BE84" rx="3" ry="3" style="stroke:#038048;stroke-width:1;"/></g><text fill="#000000" font-family="sans-serif" font-size="14" lengthAdjust="spacing" textLength="130.1152" x="267.38" y="80.292">raportoiTila(): void</text></g><!--class Valo--><g class="entity" data-entity="Valo" data-source-line="10" data-uid="ent0004" id="entity_Valo"><rect fill="#F1F1F1" height="113.1875" rx="2.5" ry="2.5" style="stroke:#181818;stroke-width:0.5;" width="205.0605" x="115" y="147.59"/><ellipse cx="197.9746" cy="163.59" fill="#ADD1B2" rx="11" ry="11" style="stroke:#181818;stroke-width:1;"/><path d="M200.9434,169.2306 Q200.3652,169.5275 199.7246,169.6681 Q199.084,169.8244 198.3809,169.8244 Q195.8809,169.8244 194.5527,168.1838 Q193.2402,166.5275 193.2402,163.4025 Q193.2402,160.2775 194.5527,158.6213 Q195.8809,156.965 198.3809,156.965 Q199.084,156.965 199.7246,157.1213 Q200.3809,157.2775 200.9434,157.5744 L200.9434,160.2931 Q200.3184,159.715 199.7246,159.4494 Q199.1309,159.1681 198.5059,159.1681 Q197.1621,159.1681 196.4746,160.2463 Q195.7871,161.3088 195.7871,163.4025 Q195.7871,165.4963 196.4746,166.5744 Q197.1621,167.6369 198.5059,167.6369 Q199.1309,167.6369 199.7246,167.3713 Q200.3184,167.09 200.9434,166.5119 L200.9434,169.2306 Z " fill="#000000"/><text fill="#000000" font-family="sans-serif" font-size="14" lengthAdjust="spacing" textLength="30.6113" x="218.4746" y="168.4367">Valo</text><line style="stroke:#181818;stroke-width:0.5;" x1="116" x2="319.0605" y1="179.59" y2="179.59"/><g data-visibility-modifier="PRIVATE_FIELD"><rect fill="none" height="6" style="stroke:#C82930;stroke-width:1;" width="6" x="123" y="190.2384"/></g><text fill="#000000" font-family="sans-serif" font-size="14" lengthAdjust="spacing" textLength="86.1328" x="135" y="196.5851">kirkkaus: int</text><line style="stroke:#181818;stroke-width:0.5;" x1="116" x2="319.0605" y1="203.8869" y2="203.8869"/><g data-visibility-modifier="PUBLIC_METHOD"><ellipse cx="126" cy="217.5353" fill="#84BE84" rx="3" ry="3" style="stroke:#038048;stroke-width:1;"/></g><text fill="#000000" font-family="sans-serif" font-size="14" lengthAdjust="spacing" textLength="179.0605" x="135" y="220.882">asetaArvo(arvo: int): void</text><g data-visibility-modifier="PUBLIC_METHOD"><ellipse cx="126" cy="233.8322" fill="#84BE84" rx="3" ry="3" style="stroke:#038048;stroke-width:1;"/></g><text fill="#000000" font-family="sans-serif" font-size="14" lengthAdjust="spacing" textLength="130.2998" x="135" y="237.1789">vaihdaTilaa(): void</text><g data-visibility-modifier="PUBLIC_METHOD"><ellipse cx="126" cy="250.1291" fill="#84BE84" rx="3" ry="3" style="stroke:#038048;stroke-width:1;"/></g><text fill="#000000" font-family="sans-serif" font-size="14" lengthAdjust="spacing" textLength="130.1152" x="135" y="253.4757">raportoiTila(): void</text></g><!--reverse link Laite to Valo--><g class="link" data-entity-1="Laite" data-entity-2="Valo" data-source-line="17" data-uid="lnk5" id="link_Laite_Valo"><path codeLine="17" d="M287.7074,102.5469 C275.1474,120.5669 270.34,127.45 256.63,147.12" fill="none" id="Laite-backto-Valo" style="stroke:#181818;stroke-width:1;"/><polygon fill="none" points="298,87.78,282.7851,99.1161,292.6297,105.9778,298,87.78" style="stroke:#181818;stroke-width:1;"/></g><!--reverse link Saadettava to Valo--><g class="link" data-entity-1="Saadettava" data-entity-2="Valo" data-source-line="18" data-uid="lnk6" id="link_Saadettava_Valo"><path codeLine="18" d="M141.6806,94.4084 C155.1706,113.7684 162.6,124.4 178.45,147.13" fill="none" id="Saadettava-backto-Valo" style="stroke:#181818;stroke-width:1;stroke-dasharray:7,7;"/><polygon fill="none" points="131.39,79.64,136.7578,97.8385,146.6033,90.9782,131.39,79.64" style="stroke:#181818;stroke-width:1;"/></g><!--SRC=[dP2n3i8m34JtV8N78fH-GDM5dGt4VYH1M8aQb9WiBVzEIQdK3GaF7dowUoVp82xTO1oT0Ej4K42Zeddso4vmI2Ksc5T7FCYkenBPgfTIk6P9C48c86SwWiMjpWA-Mvmv0CrggKB28oQ9_96QJTYISK68tmZjENcFPwxOdtt-eowT-qdhYbQR5_HJszRZ6m00]--></g></svg>